<svg xmlns="http://www.w3.org/2000/svg" width="46" height="46" fill="none"><path fill="#679A62" d="M22.002 39.172C8.602 32.496 6.65 25.846 6.109 12.446c-6.672 8.48-1.015 17.645 8.823 24.376C7.185 32.76 4.23 28.23.572 20.512c-1.632 3.305-.696 13.323 17.706 18.92-8.488-1.36-11.763-3.744-16.829-8.843.857 4.74 2.828 9.529 18.302 9.898-6.16.636-9.306.132-14.418-2.171 2.748 4.66 6.713 5.653 15.792 3.107-4.264 1.806-6.586 2.19-10.654 2.19 3.605 2.396 5.877 2.297 10.296 0-.965.886-1.51 1.305-2.49 1.932 1.793.538 4.183-1.334 4.183-1.334.12 1.135.478 1.135.478 1.135V37.58l-.936 1.593Z"/><path fill="#679A62" fill-rule="evenodd" d="m6.127 12.391.002.054c.27 6.7.893 11.709 3.122 15.876 2.226 4.164 6.055 7.49 12.743 10.825l.963-1.64v7.86h-.02v-.02.02h-.006a.202.202 0 0 1-.06-.02.414.414 0 0 1-.144-.13c-.105-.143-.222-.422-.283-.968a8.145 8.145 0 0 1-.374.263 9.065 9.065 0 0 1-1.02.587c-.823.4-1.875.738-2.778.466l-.042-.012.037-.023c.94-.603 1.48-1.012 2.375-1.829-2.144 1.104-3.784 1.681-5.328 1.693-1.577.013-3.05-.564-4.854-1.763l-.055-.036h.066c3.972-.002 6.278-.367 10.357-2.068-4.383 1.206-7.558 1.567-9.978 1.065-2.476-.514-4.158-1.931-5.535-4.265l-.032-.054.058.026c2.555 1.151 4.618 1.852 6.811 2.186 2.119.322 4.36.303 7.284.014-7.543-.211-11.825-1.49-14.33-3.305-2.54-1.84-3.248-4.23-3.677-6.6l-.011-.064.045.046c2.533 2.55 4.616 4.418 7.127 5.82 2.453 1.37 5.315 2.295 9.403 2.97C-.145 33.75-1.078 23.808.555 20.503l.018-.037.018.037c1.828 3.859 3.48 6.919 5.643 9.522 2.106 2.534 4.696 4.637 8.405 6.62-4.787-3.325-8.55-7.23-10.328-11.347-1.813-4.2-1.558-8.618 1.782-12.864l.034-.043Zm16.333 31.82-.013-.016.029-.022.003.036c.06.566.179.846.28.983.051.07.097.102.13.119.011.005.02.009.029.011v-7.67l-.909 1.547-.016-.009c-6.702-3.339-10.544-6.673-12.777-10.85-2.227-4.165-2.853-9.166-3.125-15.84-3.3 4.222-3.545 8.61-1.744 12.782 1.808 4.188 5.678 8.16 10.596 11.524l-.02.034c-3.876-2.033-6.554-4.182-8.72-6.79-2.159-2.599-3.809-5.65-5.63-9.492-1.6 3.326-.618 13.28 17.71 18.854l-.009.039c-4.245-.68-7.188-1.616-9.704-3.02-2.5-1.397-4.577-3.256-7.09-5.783.429 2.348 1.144 4.698 3.65 6.513 2.529 1.832 6.885 3.121 14.622 3.306l.001.04c-3.08.318-5.409.35-7.607.016-2.181-.332-4.234-1.026-6.764-2.163 1.366 2.294 3.033 3.685 5.476 4.192 2.465.512 5.723.125 10.262-1.148l.013.037c-4.244 1.797-6.566 2.187-10.596 2.192 1.775 1.172 3.227 1.733 4.776 1.72 1.566-.012 3.236-.609 5.445-1.757l.022.032c-.953.876-1.498 1.296-2.455 1.91.88.244 1.899-.082 2.707-.476a9.05 9.05 0 0 0 1.409-.861l.005-.004v-.001h.001l.013.015Z" clip-rule="evenodd"/><path fill="#679A62" d="M23.898 39.079c13.46-6.673 15.422-13.32 15.965-26.713 6.702 8.476 1.02 17.636-8.863 24.364 7.782-4.06 10.75-8.589 14.425-16.302 1.64 3.304.7 13.316-17.786 18.91 8.527-1.359 11.816-3.742 16.905-8.838-.86 4.737-2.84 9.524-18.386 9.892 6.188.636 9.349.133 14.485-2.17-2.76 4.658-6.744 5.65-15.865 3.106 4.284 1.805 6.617 2.188 10.703 2.19-3.621 2.394-5.903 2.295-10.343 0 .97.885 1.517 1.303 2.5 1.93-1.8.538-4.2-1.333-4.2-1.333-.12 1.134-.48 1.134-.48 1.134v-7.763l.94 1.593Z"/><path fill="#679A62" fill-rule="evenodd" d="m39.845 12.312-.002.053c-.271 6.697-.897 11.702-3.136 15.868-2.236 4.161-6.083 7.487-12.801 10.82l-.968-1.64v7.856h.02v-.02V45.269h.006a.203.203 0 0 0 .06-.02.415.415 0 0 0 .145-.13c.105-.143.223-.422.285-.967l.079.058a9.143 9.143 0 0 0 1.322.79c.826.402 1.882.738 2.79.467l.042-.012-.037-.024c-.945-.601-1.487-1.01-2.387-1.827 2.154 1.103 3.802 1.68 5.353 1.692 1.584.013 3.064-.564 4.877-1.762l.055-.037h-.066c-3.991 0-6.308-.366-10.406-2.066 4.404 1.206 7.594 1.566 10.024 1.065 2.488-.514 4.178-1.93 5.56-4.263l.033-.054-.058.025c-2.567 1.151-4.64 1.852-6.843 2.185-2.128.323-4.379.303-7.317.015 7.577-.212 11.88-1.49 14.395-3.304 2.552-1.84 3.264-4.227 3.694-6.597l.012-.063-.045.045c-2.545 2.548-4.638 4.417-7.16 5.818-2.464 1.37-5.339 2.293-9.446 2.968 18.22-5.611 19.158-15.548 17.518-18.852l-.018-.037-.018.037c-1.837 3.856-3.497 6.915-5.67 9.517-2.114 2.533-4.717 4.634-8.443 6.617 4.809-3.324 8.59-7.227 10.375-11.342 1.821-4.196 1.566-8.613-1.79-12.857l-.034-.042ZM23.438 44.114l.012-.015-.028-.022-.004.035c-.06.566-.18.846-.281.983a.377.377 0 0 1-.13.118.175.175 0 0 1-.03.012V37.56l.913 1.546.017-.009c6.732-3.337 10.592-6.67 12.835-10.844 2.238-4.163 2.866-9.162 3.139-15.831 3.315 4.219 3.561 8.604 1.752 12.774-1.816 4.186-5.704 8.155-10.644 11.518l.02.034c3.894-2.031 6.583-4.18 8.76-6.786 2.168-2.597 3.826-5.648 5.656-9.488 1.607 3.325.62 13.274-17.792 18.845l.01.039c4.264-.68 7.22-1.615 9.748-3.02 2.512-1.395 4.598-3.253 7.123-5.778-.431 2.346-1.15 4.695-3.667 6.509-2.54 1.831-6.917 3.12-14.689 3.304l-.001.04c3.094.318 5.433.351 7.641.017 2.192-.332 4.253-1.026 6.796-2.163-1.372 2.293-3.047 3.684-5.502 4.19-2.476.512-5.748.125-10.308-1.148l-.014.038c4.264 1.797 6.597 2.186 10.645 2.191-1.784 1.172-3.242 1.731-4.798 1.72-1.573-.013-3.25-.61-5.47-1.757l-.022.032c.958.875 1.505 1.295 2.466 1.91-.883.243-1.908-.083-2.72-.477a9.098 9.098 0 0 1-1.394-.846l-.02-.015-.004-.003-.001-.001-.002-.001-.012.015Z" clip-rule="evenodd"/><path fill="#679A62" d="M14.634 18.6v14.279c1.158 1.29 1.679 1.644 2.49 1.932V18.599c.363-.76.642-1.047 1.573-1.214H27.3c.85.172 1.088.416 1.533 1.214v16.212c1.252-.713 1.87-1.143 2.45-1.932v-14.28c-.25-2.189-.892-3.102-3.405-3.564H17.78c-2.107.502-2.739 1.345-3.146 3.564ZM9.246 25.644l.03.066v-5.537c.493-1.09.931-1.464 1.931-1.812h1.773c-.013-.75.11-1.2.617-2.071-3.58-.226-5.063.317-6.313 3.067.58 3.238 1.083 4.346 1.962 6.287ZM36.54 25.644l-.03.066v-5.545c-.501-1.092-.947-1.466-1.963-1.815h-1.8c.013-.75-.112-1.202-.627-2.074 3.637-.226 5.143.318 6.412 3.071-.59 3.243-1.1 4.353-1.992 6.297Z"/><path fill="#679A62" fill-rule="evenodd" d="M22.958 10.733c1.057 0 1.952-.871 1.952-1.992 0-1.12-.895-1.991-1.952-1.991-1.058 0-1.952.87-1.952 1.991 0 1.12.894 1.992 1.952 1.992Zm0 2.39c2.398 0 4.341-1.962 4.341-4.382S25.355 4.36 22.958 4.36c-2.398 0-4.342 1.961-4.342 4.381s1.944 4.382 4.342 4.382ZM14.175 12.366c.648 0 1.215-.538 1.215-1.255 0-.716-.567-1.254-1.215-1.254-.648 0-1.215.538-1.215 1.254 0 .717.567 1.255 1.215 1.255Zm0 1.992c1.771 0 3.206-1.454 3.206-3.247 0-1.792-1.435-3.246-3.206-3.246-1.77 0-3.206 1.454-3.206 3.246 0 1.793 1.435 3.247 3.206 3.247ZM31.74 12.366c.648 0 1.215-.538 1.215-1.255 0-.716-.567-1.254-1.214-1.254-.648 0-1.215.538-1.215 1.254 0 .717.567 1.255 1.215 1.255Zm0 1.992c1.771 0 3.207-1.454 3.207-3.247 0-1.792-1.436-3.246-3.206-3.246-1.771 0-3.207 1.454-3.207 3.246 0 1.793 1.436 3.247 3.207 3.247Z" clip-rule="evenodd"/><path fill="#679A62" d="M7.105 3.683v12.885c.74-.775 1.202-1.092 2.131-1.394V5.257C19.985.914 26.011.81 36.76 5.257v9.917c.982.445 1.433.742 1.992 1.394V3.683c-12.666-4.998-19.58-4.769-31.646 0Z"/><path fill="#679A62" fill-rule="evenodd" d="M7.125 3.697v12.822c.354-.37.647-.634.963-.842.323-.213.669-.368 1.128-.517V5.243l.012-.005c5.376-2.172 9.572-3.284 13.77-3.297 4.197-.013 8.393 1.074 13.768 3.297l.013.005v9.918c.954.433 1.408.73 1.951 1.354V3.697C32.405 1.202 27.517.012 22.703.04 17.89.07 13.15 1.316 7.125 3.697ZM22.702 0c4.824-.03 9.721 1.164 16.056 3.664l.012.005v12.952l-.035-.04c-.556-.65-1.005-.946-1.984-1.39l-.012-.005V5.27C31.372 3.05 27.184 1.968 22.997 1.98c-4.186.013-8.374 1.122-13.741 3.289v9.919l-.014.004c-.464.15-.81.305-1.132.517-.322.213-.621.485-.99.872l-.035.036V3.67l.013-.005C13.13 1.28 17.878.029 22.702 0Z" clip-rule="evenodd"/></svg>