<svg xmlns="http://www.w3.org/2000/svg" width="129" height="40" fill="none"><path fill="#fff" fill-rule="evenodd" d="m129 20-.001 2-.001.828-.003.636-.003.536-.005.471-.005.427-.007.391-.008.365-.008.342-.01.323-.011.308-.012.293-.013.28-.013.271-.015.26-.016.252-.017.243-.018.236-.019.23-.02.223-.021.216-.022.212-.023.206-.025.202-.025.197-.026.193-.027.188-.029.185-.029.18-.03.178-.032.174-.032.171-.034.168-.035.165-.035.162-.037.159-.038.156-.039.154-.04.15-.041.15-.042.146-.043.144-.044.142-.045.14-.047.137-.047.136-.049.133-.049.132-.051.13-.052.127-.053.126-.054.124-.055.122-.056.12-.058.12-.058.117-.06.115-.061.114-.062.112-.063.11-.064.11-.065.107-.067.106-.067.105-.069.103-.07.101-.071.1-.073.1-.073.097-.075.096-.076.094-.077.093-.079.092-.08.091-.08.09-.083.087-.083.087-.085.085-.086.084-.087.083-.089.082-.09.08-.091.08-.093.078-.094.076-.095.076-.097.074-.098.073-.099.072-.101.071-.103.07-.104.068-.105.068-.107.066-.108.065-.11.064-.112.063-.113.061-.115.06-.116.06-.118.059-.12.057-.121.056-.123.055-.125.054-.127.053-.129.052-.13.05-.133.05-.134.049-.137.047-.138.047-.141.045-.143.044-.145.044-.147.042-.15.041-.152.04-.154.04-.158.037-.159.038-.163.035-.165.035-.169.034-.171.033-.175.032-.178.03-.181.03-.185.03-.189.027-.192.027-.197.026-.202.024-.206.024-.21.023-.216.021-.222.021-.228.02-.234.018-.241.018-.248.017-.257.015-.266.015-.276.013-.286.013-.3.012-.313.01-.329.01-.349.008-.371.008-.399.006-.433.006-.478.005-.543.003-.64.003-.825.001L99.049 40h-2.541l-.873-.002-.661-.002-.555-.004-.487-.004-.44-.005-.404-.007-.375-.007-.351-.009-.333-.01-.316-.01-.3-.011-.29-.013-.277-.013-.267-.014-.258-.016-.25-.016-.242-.018-.235-.018-.229-.02-.223-.02-.217-.022-.211-.022-.207-.024-.202-.024-.198-.026-.193-.026-.19-.028-.185-.029-.182-.03-.178-.03-.175-.032-.172-.032-.169-.034-.166-.035-.163-.036-.16-.037-.158-.038-.155-.038-.152-.04-.15-.041-.148-.042-.145-.044-.144-.044-.14-.045-.14-.046-.136-.048-.135-.048-.133-.05-.13-.05-.13-.052-.127-.052-.125-.054-.123-.055-.122-.056-.12-.057-.118-.058-.117-.06-.115-.06-.113-.061-.112-.063-.11-.064-.109-.065-.107-.066-.106-.067-.104-.068-.102-.07-.102-.07-.1-.072-.098-.073-.097-.074-.095-.076-.094-.076-.093-.078-.092-.079-.09-.08-.089-.081-.087-.083-.087-.084-.085-.085-.083-.087-.082-.088-.082-.089-.08-.09-.078-.092-.078-.093-.076-.094-.075-.096-.074-.097-.072-.099-.072-.1-.07-.101-.069-.103-.068-.104-.066-.106-.066-.107-.064-.109-.064-.11-.062-.112-.06-.114-.06-.115-.059-.117-.058-.118-.056-.12-.055-.123-.055-.123-.053-.126-.052-.127-.05-.13-.05-.13-.05-.134-.047-.135-.046-.137-.046-.14-.044-.141-.043-.144-.043-.146-.04-.148-.041-.151-.04-.153-.037-.156-.037-.159-.036-.161-.035-.165-.033-.167-.033-.17-.032-.174-.03-.177-.03-.18-.028-.184-.028-.188-.026-.192-.026-.196-.024-.201-.023-.206-.022-.21-.022-.217-.02-.222-.019-.228-.018-.235-.017-.242-.016-.25-.015-.259-.014-.268-.013-.28-.012-.29-.011-.306-.01-.32-.009-.34-.008-.36-.007-.387-.005-.42-.005-.464-.004-.523-.003-.616-.001-.786L78 20.798v-2.632l.002-.88.002-.657.003-.548.005-.48.005-.433.007-.397.007-.368.009-.346.01-.326.01-.31.012-.295.012-.283.014-.272.015-.262.016-.252.016-.245.018-.237.019-.23.02-.224.02-.218.023-.213.023-.207.024-.202.025-.198.026-.193.027-.19.028-.185.03-.181.03-.178.03-.175.033-.171.034-.168.034-.166.035-.162.037-.16.038-.156.038-.154.04-.152.041-.15.042-.146.043-.144.044-.143.045-.14.046-.138.047-.135.049-.134.05-.132.05-.13.052-.128.052-.126.054-.124.055-.123.056-.12.058-.12.058-.117.06-.116.06-.114.062-.112.063-.111.063-.11.066-.107.066-.106.067-.105.07-.103.069-.102.07-.1.073-.1.073-.097.075-.096.076-.095.077-.094.078-.092.08-.09.08-.09.082-.088.084-.087.084-.086.086-.084.087-.083.089-.082.09-.08.09-.08.093-.078.094-.077.095-.076.096-.074.098-.074.1-.072.1-.071.102-.07.104-.069.105-.067.107-.066.108-.066.11-.064.11-.063.114-.062.114-.06.116-.06.118-.058.12-.058.12-.056.124-.055.124-.055.127-.053.128-.052.13-.05.132-.05.135-.05.136-.047.138-.046.14-.046.143-.044.144-.044.147-.042.15-.042.151-.04.155-.04.156-.037.16-.038.162-.036.165-.035.168-.034.17-.033.175-.032.177-.031.18-.03.185-.029.188-.028.193-.027.196-.026.2-.025.205-.023.21-.023.216-.022.22-.02.227-.02.233-.02.24-.017.247-.017.256-.016.264-.015.274-.013.285-.013.297-.012.31-.01.328-.01.345-.01.367-.007.394-.007.427-.005.47-.005.53-.004.622-.003.784-.001L97.471 0h12.843l.931.002.685.002.568.003.496.004.447.006.408.006.38.007.355.008.335.01.318.01.304.011.29.012.279.014.269.014.26.015.251.017.243.017.236.018.23.02.224.02.217.021.213.023.207.023.203.024.198.026.194.026.19.028.186.028.183.03.179.03.176.032.172.032.169.034.167.034.163.036.161.037.158.037.155.04.153.039.151.04.148.043.145.043.144.044.141.045.139.046.138.047.135.048.133.05.131.05.129.051.128.053.125.054.124.054.122.056.12.057.119.058.117.059.115.06.113.062.112.062.111.064.109.064.107.066.106.067.104.068.103.07.102.07.1.072.098.072.097.074.096.075.095.077.093.077.091.08.091.08.089.08.087.083.087.084.085.085.084.086.082.088.082.088.08.09.079.092.077.093.077.094.075.096.074.097.073.098.071.1.071.1.069.103.068.104.067.106.066.107.064.109.064.11.062.111.061.114.06.115.059.116.057.118.057.12.056.122.054.123.053.126.053.127.051.129.05.13.048.133.048.135.047.137.046.14.044.14.044.144.042.145.041.148.041.15.039.154.038.155.037.159.036.16.035.164.034.167.033.17.032.173.03.176.03.18.029.184.027.187.027.191.026.196.024.2.024.205.022.21.021.215.021.22.019.228.018.234.018.24.016.25.015.257.014.267.013.277.012.29.011.302.011.318.009.336.008.357.007.382.006.415.004.455.004.513.003.598.002.748.001 1.168V20ZM99 31h8c7.579 0 12-4.714 12-11.063C119 13.526 114.639 9 107.12 9H99v22Zm-4 0h-6V9h6v22ZM21.954 20c0 6.068-4.397 11.5-11.008 11.5C4.335 31.5 0 26.131 0 20 0 13.932 4.397 8.5 11.008 8.5c6.612 0 10.947 5.369 10.947 11.5Zm-20.27 0c0 5.496 3.93 10.007 9.325 10.007S20.27 25.559 20.27 20c0-5.496-3.929-10.007-9.324-10.007S1.684 14.441 1.684 20Zm27.863 11H28V9h1.516l14.941 19.14V9h1.547v22h-1.206L29.547 11.451V31ZM68 31H52.44V9h15.405v1.509H54.048v8.642h12.405v1.509H54.048v8.831H68V31Zm40.198-3.855a9.075 9.075 0 0 0 2.197-.334 6.491 6.491 0 0 0 1.688-.723c.144-.085.284-.177.422-.276l-.005-.002a7.35 7.35 0 0 0 1.264-1.183c.172-.202.469-.63.637-.96-.389-.413-.981-.752-1.536-1.05l-.059-.033c-.257-.138-.723-.39-1.157-.559l-.144-.054c-.375-.138-.814-.3-.858-.746-.034-.344.14-.558.348-.814.05-.062.102-.126.153-.194.606-.81 1.176-1.913 1.073-3.408-.101-1.467-1.04-2.606-2.611-2.782a4.234 4.234 0 0 0-.531-.027 4.25 4.25 0 0 0-.532.027c-1.571.176-2.51 1.315-2.611 2.782-.103 1.494.467 2.598 1.073 3.408.052.068.103.132.153.194.208.256.382.47.348.814-.044.446-.483.608-.858.746l-.143.054c-.435.17-.9.42-1.158.56l-.059.031c-.824.443-1.728.976-1.931 1.704-.249.891-.383 2.01-.358 2.825h1.407c.392 0 .795.003 1.206.008h.001c.844.008 1.718.016 2.581-.008Z" clip-rule="evenodd"/></svg>